<svg xmlns="http://www.w3.org/2000/svg" preserveAspectRatio="xMidYMid meet" data-bbox="19.8 52.9 160.2 94.1" viewBox="19.8 52.9 160.2 94.1" height="266.668" width="266.668" data-type="shape" role="presentation" aria-hidden="true" aria-label="">
    <g>
        <path d="M175.4 68.9h-9.5c-7.2 0-14.3-1.5-20.8-4.6-10-4.7-27.4-11.4-45.2-11.4s-35.1 6.6-45.2 11.4c-6.5 3-13.6 4.6-20.8 4.6h-9.5c-2.5 0-4.6 2.1-4.6 4.6v52.9c0 2.5 2 4.6 4.6 4.6h9.5c7.2 0 14.3 1.5 20.8 4.6 10 4.7 27.4 11.4 45.2 11.4s35.1-6.6 45.2-11.4c6.5-3 13.6-4.6 20.8-4.6h9.5c2.5 0 4.6-2.1 4.6-4.6V73.5c0-2.5-2-4.6-4.6-4.6" fill="#ffffff"/>
    </g>
</svg>