<svg preserveAspectRatio="xMidYMid meet" data-bbox="20.007 40.483 160.002 118.999" viewBox="20.007 40.483 160.002 118.999" height="200" width="200" xmlns="http://www.w3.org/2000/svg" data-type="color" role="presentation" aria-hidden="true" aria-label="">
    <g>
        <path fill="#010101" d="M179.35 136.979c-1.942 8.812-8.597 16.385-16.947 19.418-8.668 3.149-18.908 1.049-25.835-5.067-7.109-6.276-9.874-16.059-9.81-25.364.061-8.898 2.568-17.98 7.719-25.239 2.456-3.461 5.606-6.486 9.353-8.451 3.594-1.884 8.214-3.215 12.166-1.728 2.278.857 3.6 2.66 4.073 5.057.5 2.53.417 5.207.021 7.745-.816 5.236-3.136 10.144-6.206 14.393-5.574 7.713-14.003 13.568-23.302 15.391-8.927 1.75-18.513-.554-25.539-6.484-7.833-6.611-10.635-16.969-10.013-27.018.604-9.755 4.179-19.216 10.007-26.974a48 48 0 0 1 4.778-5.442c1.744-1.71 3.677-3.642 6.084-4.295 4.152-1.127 8.108 2.216 9.718 5.866 1.953 4.43.244 9.316-2.146 13.197-2.636 4.28-6.208 8.026-9.814 11.47-6.977 6.663-15.512 12.524-25.208 13.804-4.453.588-8.952.163-13.172-1.419-3.974-1.49-7.579-3.862-10.64-6.829-6.143-5.956-9.939-14.29-9.787-22.973.157-8.933 4.258-17.57 10.381-23.865 3.12-3.207 6.779-5.847 10.832-7.691 2.209-1.005 4.82-1.935 7.141-.742 1.405.722 2.23 2.165 2.59 3.676.913 3.83-.278 7.732-1.61 11.297a54.2 54.2 0 0 1-6.392 12.159c-5.205 7.419-12.521 13.522-21.117 16.345-8.176 2.685-17.399 2.295-25.264-1.256-3.751-1.694-7.227-4.158-9.951-7.295-1.064-1.226-1.917 1.082-1.171 1.941 6.176 7.115 15.214 10.795 24.465 11.009 9.571.221 18.678-3.403 25.962-9.639 7.472-6.396 12.886-15.203 15.9-24.606 1.263-3.939 1.897-8.594.248-12.526-.73-1.741-2-3.241-3.766-3.934-2.6-1.02-5.39-.034-7.79 1.08-8.69 4.036-15.623 11.598-19.33 20.511-3.703 8.902-3.839 19.096.227 27.894 3.861 8.356 11.057 15.282 19.778 18.094 9.678 3.12 19.829.42 28.234-4.908 4.458-2.825 8.505-6.282 12.212-10.056 3.687-3.753 7.405-7.828 9.669-12.66 2.185-4.663 2.759-9.985.188-14.61-2.134-3.839-6.397-6.951-10.882-5.687-2.536.714-4.612 2.728-6.463 4.535s-3.544 3.758-5.097 5.828c-3.111 4.146-5.591 8.791-7.359 13.685-3.643 10.085-4.507 21.889-.623 32.038 3.614 9.444 11.931 16.085 21.577 18.265 9.799 2.215 19.904-.512 27.996-6.366 8.434-6.102 15.212-15.918 16.161-26.592.434-4.878.05-11.247-5.104-13.365-4.134-1.699-9.077-.433-12.901 1.523-8.182 4.186-13.455 12.794-16.063 21.468-2.832 9.419-3.075 20.162.428 29.433 1.726 4.568 4.467 8.785 8.167 11.945 3.712 3.171 8.273 5.261 13.041 6.102 4.717.833 9.625.425 14.097-1.346 4.334-1.717 8.191-4.655 11.13-8.31a27.5 27.5 0 0 0 5.606-12.181c.102-.543-.501-.912-.646-.253Z" data-color="1"></path>
    </g>
</svg>