<svg xmlns="http://www.w3.org/2000/svg" preserveAspectRatio="xMidYMid meet" data-bbox="41.944 66.034 116.115 67.933" viewBox="41.944 66.034 116.115 67.933" height="200" width="200" data-type="shape" role="presentation" aria-hidden="true" aria-label="">
    <g>
        <path fill-rule="evenodd" d="M49.166 91.717c7.849 14.606 13.088 28.87 11.434 42.25h79.051c-1.651-13.334 3.551-27.546 11.358-42.098a4.28 4.28 0 0 0 2.753 1.001 4.297 4.297 0 1 0-3.024-1.245c-12.733 13.368-21.954 15.803-24.629-2.151q.329.052.676.052c2.374 0 4.296-1.922 4.296-4.294s-1.922-4.302-4.296-4.302a4.298 4.298 0 0 0-1.672 8.259c-9.153 14.021-16.801 11.603-22.839-8.387a7.66 7.66 0 0 0 4.85-7.122 7.646 7.646 0 1 0-15.292 0 7.644 7.644 0 0 0 6.04 7.477c-6.033 19.704-13.663 21.974-22.787 7.944a4.3 4.3 0 0 0-1.869-8.171 4.297 4.297 0 0 0-4.296 4.302 4.29 4.29 0 0 0 5.229 4.19c-2.672 18.068-11.952 15.565-24.757 2.069a4.296 4.296 0 0 0-3.155-7.214 4.296 4.296 0 1 0 2.93 7.441Zm15.127 37.459h71.136v2.198H64.293z" fill="#f8b828"/>
    </g>
</svg>